<svg xmlns="http://www.w3.org/2000/svg" viewBox="-5.000 -23.000 18.906 33.000" width="19" height="33">
<rect x="-5.000" y="-23.000" width="18.906" height="33.000" fill="#f9f9fb"/>
<line x1="-5.000" y1="0.000" x2="13.906" y2="0.000" stroke="#c0c0c0" stroke-dasharray="4 3"/>
<line x1="-5.000" y1="-18.000" x2="13.906" y2="-18.000" stroke="#e0a000" stroke-dasharray="4 3"/>
<line x1="-5.000" y1="5.000" x2="13.906" y2="5.000" stroke="#e0a000" stroke-dasharray="4 3"/>
<text x="-2.000" y="-21.000" font-size="10" text-anchor="start" font-family="monospace">ascender</text>
<text x="-2.000" y="-3.000" font-size="10" text-anchor="start" font-family="monospace">baseline</text>
<text x="-2.000" y="17.000" font-size="10" text-anchor="start" font-family="monospace">descender</text>
<line x1="0" y1="-18.000" x2="0" y2="5.000" stroke="#c0c0c0" stroke-dasharray="4 3"/>
<text x="0.000" y="-24.000" font-size="10" text-anchor="middle" font-family="monospace">origin x=0</text>
<line x1="0.609" y1="-18.000" x2="0.609" y2="5.000" stroke="#00a0e0" stroke-dasharray="4 3"/>
<text x="0.609" y="-24.000" font-size="10" text-anchor="middle" font-family="monospace">LSB=0.61px</text>
<line x1="8.906" y1="-18.000" x2="8.906" y2="5.000" stroke="#008000" stroke-dasharray="4 3"/>
<text x="8.906" y="-24.000" font-size="10" text-anchor="middle" font-family="monospace">advance=8.91px</text>
<rect x="0.609" y="-8.484" width="7.656" height="8.688" fill="none" stroke="#cc3333" stroke-width="1"/>
<text x="3.609" y="3.516" font-size="10" text-anchor="start" font-family="monospace">bbox 7.66×8.69px</text>
<path d="M 8.266 -0.000 L 6.781 -0.000 Q 6.578 -0.391 6.500 -1.031 Q 5.078 0.203 3.438 0.203 Q 2.125 0.203 1.359 -0.453 Q 0.609 -1.125 0.609 -2.203 Q 0.609 -3.234 1.344 -3.891 Q 2.078 -4.562 3.875 -4.781 L 5.188 -4.984 Q 5.922 -5.094 6.406 -5.266 Q 6.406 -5.906 6.359 -6.156 Q 6.328 -6.422 6.125 -6.703 Q 5.938 -6.984 5.516 -7.156 Q 5.094 -7.328 4.391 -7.328 Q 3.484 -7.328 2.953 -6.984 Q 2.422 -6.656 2.234 -5.750 L 0.859 -5.922 Q 1.078 -7.203 2.016 -7.844 Q 2.953 -8.484 4.594 -8.484 Q 6.094 -8.484 6.781 -8.031 Q 7.484 -7.594 7.641 -6.969 Q 7.812 -6.344 7.812 -5.359 L 7.812 -3.469 Q 7.812 -1.750 7.875 -1.156 Q 7.938 -0.562 8.266 -0.000 Z M 6.406 -3.656 L 6.406 -4.156 Q 5.297 -3.797 3.703 -3.578 Q 2.109 -3.359 2.109 -2.234 Q 2.109 -1.656 2.531 -1.281 Q 2.969 -0.922 3.781 -0.922 Q 4.812 -0.922 5.609 -1.531 Q 6.406 -2.156 6.406 -3.656 Z" fill="none" stroke="#7a3fe0" stroke-width="1.2" stroke-dasharray="5 3" opacity="0.9"/>
<path d="M 8.000 -0.000 L 7.000 -0.000 Q 7.000 -0.469 7.000 -1.234 Q 5.562 -0.000 3.891 -0.000 Q 2.547 -0.000 1.766 -0.594 Q 1.000 -1.203 1.000 -2.188 Q 1.500 -3.141 2.000 -3.750 Q 2.516 -4.359 4.391 -4.562 L 5.750 -4.734 Q 6.500 -4.844 7.000 -5.000 Q 7.000 -5.609 6.953 -5.859 Q 6.906 -6.125 6.672 -6.391 Q 6.453 -6.672 5.938 -6.828 Q 5.438 -7.000 4.578 -7.000 Q 3.500 -7.000 2.859 -6.781 Q 2.234 -6.578 2.000 -6.000 L 1.000 -6.125 Q 1.234 -7.062 2.172 -7.531 Q 3.109 -8.000 4.766 -8.000 Q 6.266 -8.000 6.969 -7.578 Q 7.672 -7.172 7.828 -6.578 Q 8.000 -5.984 8.000 -5.062 L 8.000 -3.281 Q 8.000 -1.641 8.000 -1.078 Q 8.000 -0.531 8.000 -0.000 Z M 7.000 -3.531 L 7.000 -4.000 Q 5.719 -3.656 3.859 -3.453 Q 2.000 -3.266 2.000 -2.219 Q 2.000 -1.688 2.500 -1.344 Q 3.000 -1.000 3.938 -1.000 Q 5.156 -1.000 6.078 -1.578 Q 7.000 -2.156 7.000 -3.531 Z" fill="none" stroke="#000000" stroke-width="1.2"/>
<text x="27.000" y="-2.000" font-size="10" text-anchor="start" font-family="monospace">original (unhinted)</text>
<line x1="3.000" y1="-6.000" x2="21.000" y2="-6.000" stroke="#7a3fe0" stroke-dasharray="5 3" stroke-width="1.2"/>
<text x="27.000" y="14.000" font-size="10" text-anchor="start" font-family="monospace">hinted</text>
<line x1="3.000" y1="10.000" x2="21.000" y2="10.000" stroke="#000000" stroke-width="1.2"/>
</svg>