<svg xmlns="http://www.w3.org/2000/svg" viewBox="-20.480 -2209.480 1179.960 2784.960" width="1180" height="2785">
<rect x="-20.480" y="-2209.480" width="1179.960" height="2784.960" fill="#fff"/>
<circle cx="256.000" cy="-938.667" r="85.333" fill="rgb(0,0,0)" fill-opacity="0.250"/>
<circle cx="426.667" cy="-938.667" r="85.333" fill="rgb(0,0,0)" fill-opacity="0.250"/>
<circle cx="597.333" cy="-938.667" r="85.333" fill="rgb(0,0,0)" fill-opacity="0.250"/>
<circle cx="768.000" cy="-938.667" r="85.333" fill="rgb(0,0,0)" fill-opacity="0.250"/>
<circle cx="938.667" cy="-938.667" r="85.333" fill="rgb(0,0,0)" fill-opacity="0.250"/>
<circle cx="256.000" cy="-768.000" r="85.333" fill="rgb(0,0,0)" fill-opacity="0.250"/>
<circle cx="938.667" cy="-768.000" r="85.333" fill="rgb(0,0,0)" fill-opacity="0.250"/>
<circle cx="426.667" cy="-597.333" r="85.333" fill="rgb(0,0,0)" fill-opacity="0.250"/>
<circle cx="597.333" cy="-597.333" r="85.333" fill="rgb(0,0,0)" fill-opacity="0.250"/>
<circle cx="768.000" cy="-597.333" r="85.333" fill="rgb(0,0,0)" fill-opacity="0.250"/>
<circle cx="938.667" cy="-597.333" r="85.333" fill="rgb(0,0,0)" fill-opacity="0.250"/>
<circle cx="256.000" cy="-426.667" r="85.333" fill="rgb(0,0,0)" fill-opacity="0.250"/>
<circle cx="938.667" cy="-426.667" r="85.333" fill="rgb(0,0,0)" fill-opacity="0.250"/>
<circle cx="85.333" cy="-256.000" r="85.333" fill="rgb(0,0,0)" fill-opacity="0.250"/>
<circle cx="256.000" cy="-256.000" r="85.333" fill="rgb(0,0,0)" fill-opacity="0.250"/>
<circle cx="938.667" cy="-256.000" r="85.333" fill="rgb(0,0,0)" fill-opacity="0.250"/>
<circle cx="256.000" cy="-85.333" r="85.333" fill="rgb(0,0,0)" fill-opacity="0.250"/>
<circle cx="426.667" cy="-85.333" r="85.333" fill="rgb(0,0,0)" fill-opacity="0.250"/>
<circle cx="597.333" cy="-85.333" r="85.333" fill="rgb(0,0,0)" fill-opacity="0.250"/>
<circle cx="768.000" cy="-85.333" r="85.333" fill="rgb(0,0,0)" fill-opacity="0.250"/>
<circle cx="938.667" cy="-85.333" r="85.333" fill="rgb(0,0,0)" fill-opacity="0.250"/>
<path d="M 1057.000 0.000 L 868.000 0.000 Q 842.000 -50.000 831.000 -131.000 Q 650.000 25.000 440.000 25.000 Q 272.000 25.000 175.000 -59.000 Q 78.000 -143.000 78.000 -281.000 Q 78.000 -413.000 171.000 -498.000 Q 265.000 -584.000 496.000 -612.000 L 664.000 -637.000 Q 758.000 -652.000 819.000 -674.000 Q 819.000 -755.000 814.000 -788.000 Q 809.000 -822.000 784.000 -858.000 Q 760.000 -894.000 706.000 -916.000 Q 652.000 -938.000 561.000 -938.000 Q 445.000 -938.000 377.000 -895.000 Q 310.000 -852.000 285.000 -735.000 L 109.000 -758.000 Q 138.000 -921.000 258.000 -1003.000 Q 378.000 -1085.000 588.000 -1085.000 Q 779.000 -1085.000 868.000 -1028.000 Q 958.000 -972.000 978.000 -892.000 Q 999.000 -812.000 999.000 -686.000 L 999.000 -444.000 Q 999.000 -223.000 1007.000 -147.000 Q 1016.000 -72.000 1057.000 0.000 Z M 819.000 -467.000 L 819.000 -532.000 Q 678.000 -485.000 474.000 -457.000 Q 270.000 -430.000 270.000 -285.000 Q 270.000 -212.000 325.000 -164.000 Q 380.000 -117.000 483.000 -117.000 Q 616.000 -117.000 717.000 -196.000 Q 819.000 -276.000 819.000 -467.000 Z" fill="none" stroke="#000" stroke-width="6.144" />
<text x="307.200" y="-1984.200" font-size="81.920" text-anchor="start" font-family="monospace">original (EM)</text>
<line x1="61.440" y1="-2025.160" x2="266.240" y2="-2025.160" stroke="#000" stroke-width="6.144" />
<text x="307.200" y="-1820.360" font-size="81.920" text-anchor="start" font-family="monospace">FT bitmap (unhinted)</text>
<rect x="61.440" y="-1861.320" width="163.840" height="102.400" fill="#000" fill-opacity="0.6" stroke="none"/>
</svg>