<svg xmlns="http://www.w3.org/2000/svg" viewBox="0.000 -1267.400 1139.000 1515.200" width="1139" height="1515">
<rect x="0.000" y="-1267.400" width="1139.000" height="1515.200" fill="#fff"/>
<circle cx="426.667" cy="-1109.333" r="85.333" fill="rgb(0,0,0)" fill-opacity="0.250"/>
<circle cx="597.333" cy="-1109.333" r="85.333" fill="rgb(0,0,0)" fill-opacity="0.250"/>
<circle cx="768.000" cy="-1109.333" r="85.333" fill="rgb(0,0,0)" fill-opacity="0.250"/>
<circle cx="256.000" cy="-938.667" r="85.333" fill="rgb(0,0,0)" fill-opacity="0.250"/>
<circle cx="938.667" cy="-938.667" r="85.333" fill="rgb(0,0,0)" fill-opacity="0.250"/>
<circle cx="938.667" cy="-768.000" r="85.333" fill="rgb(0,0,0)" fill-opacity="0.250"/>
<circle cx="426.667" cy="-597.333" r="85.333" fill="rgb(0,0,0)" fill-opacity="0.250"/>
<circle cx="597.333" cy="-597.333" r="85.333" fill="rgb(0,0,0)" fill-opacity="0.250"/>
<circle cx="768.000" cy="-597.333" r="85.333" fill="rgb(0,0,0)" fill-opacity="0.250"/>
<circle cx="938.667" cy="-597.333" r="85.333" fill="rgb(0,0,0)" fill-opacity="0.250"/>
<circle cx="256.000" cy="-426.667" r="85.333" fill="rgb(0,0,0)" fill-opacity="0.250"/>
<circle cx="938.667" cy="-426.667" r="85.333" fill="rgb(0,0,0)" fill-opacity="0.250"/>
<circle cx="256.000" cy="-256.000" r="85.333" fill="rgb(0,0,0)" fill-opacity="0.250"/>
<circle cx="768.000" cy="-256.000" r="85.333" fill="rgb(0,0,0)" fill-opacity="0.250"/>
<circle cx="938.667" cy="-256.000" r="85.333" fill="rgb(0,0,0)" fill-opacity="0.250"/>
<circle cx="426.667" cy="-85.333" r="85.333" fill="rgb(0,0,0)" fill-opacity="0.250"/>
<circle cx="597.333" cy="-85.333" r="85.333" fill="rgb(0,0,0)" fill-opacity="0.250"/>
<circle cx="938.667" cy="-85.333" r="85.333" fill="rgb(0,0,0)" fill-opacity="0.250"/>
<path d="M 1057.000 0.000 L 868.000 0.000 Q 842.000 -50.000 831.000 -131.000 Q 650.000 25.000 440.000 25.000 Q 272.000 25.000 175.000 -59.000 Q 78.000 -143.000 78.000 -281.000 Q 78.000 -413.000 171.000 -498.000 Q 265.000 -584.000 496.000 -612.000 L 664.000 -637.000 Q 758.000 -652.000 819.000 -674.000 Q 819.000 -755.000 814.000 -788.000 Q 809.000 -822.000 784.000 -858.000 Q 760.000 -894.000 706.000 -916.000 Q 652.000 -938.000 561.000 -938.000 Q 445.000 -938.000 377.000 -895.000 Q 310.000 -852.000 285.000 -735.000 L 109.000 -758.000 Q 138.000 -921.000 258.000 -1003.000 Q 378.000 -1085.000 588.000 -1085.000 Q 779.000 -1085.000 868.000 -1028.000 Q 958.000 -972.000 978.000 -892.000 Q 999.000 -812.000 999.000 -686.000 L 999.000 -444.000 Q 999.000 -223.000 1007.000 -147.000 Q 1016.000 -72.000 1057.000 0.000 Z M 819.000 -467.000 L 819.000 -532.000 Q 678.000 -485.000 474.000 -457.000 Q 270.000 -430.000 270.000 -285.000 Q 270.000 -212.000 325.000 -164.000 Q 380.000 -117.000 483.000 -117.000 Q 616.000 -117.000 717.000 -196.000 Q 819.000 -276.000 819.000 -467.000 Z" fill="none" stroke="#000" stroke-width="6.144" />
<path d="M 1024.000 -0.000 L 853.333 -0.000 Q 853.333 -58.667 853.333 -218.667 Q 688.000 -0.000 498.667 -0.000 Q 346.667 -42.667 258.667 -104.000 Q 170.667 -165.333 170.667 -298.667 Q 170.667 -426.667 256.000 -530.667 Q 344.000 -637.333 554.667 -621.333 L 709.333 -645.333 Q 797.333 -661.333 853.333 -682.667 Q 853.333 -786.667 848.000 -829.333 Q 842.667 -874.667 818.667 -920.000 Q 797.333 -968.000 744.000 -994.667 Q 693.333 -1024.000 605.333 -1024.000 Q 496.000 -1024.000 429.333 -986.667 Q 365.333 -952.000 341.333 -853.333 L 170.667 -874.667 Q 197.333 -1034.667 312.000 -1114.667 Q 429.333 -1194.667 629.333 -1194.667 Q 813.333 -1194.667 877.333 -1130.667 Q 941.333 -1069.333 981.333 -981.333 Q 1024.000 -893.333 1024.000 -754.667 L 1024.000 -488.000 Q 1024.000 -245.333 1024.000 -162.667 Q 1024.000 -80.000 1024.000 -0.000 Z M 853.333 -458.667 L 853.333 -512.000 Q 722.667 -474.667 530.667 -472.000 Q 341.333 -472.000 341.333 -309.333 Q 341.333 -248.000 392.000 -208.000 Q 442.667 -170.667 538.667 -170.667 Q 664.000 -170.667 736.000 -234.667 Q 810.667 -301.333 853.333 -458.667 Z" fill="none" stroke="#0054a2" stroke-width="9.216" stroke-dasharray="0.000 14.336" stroke-linecap="round" />
</svg>