<svg xmlns="http://www.w3.org/2000/svg" viewBox="0.000 -1267.400 1194.667 1515.200" width="1195" height="1515">
<rect x="0.000" y="-1267.400" width="1194.667" height="1515.200" fill="#fff"/>
<rect x="170.667" y="-1194.667" width="170.667" height="170.667" fill="rgb(253,253,253)"/>
<rect x="341.333" y="-1194.667" width="170.667" height="170.667" fill="rgb(195,195,195)"/>
<rect x="512.000" y="-1194.667" width="170.667" height="170.667" fill="rgb(170,170,170)"/>
<rect x="682.667" y="-1194.667" width="170.667" height="170.667" fill="rgb(199,199,199)"/>
<rect x="853.333" y="-1194.667" width="170.667" height="170.667" fill="rgb(254,254,254)"/>
<rect x="0.000" y="-1024.000" width="170.667" height="170.667" fill="rgb(248,248,248)"/>
<rect x="170.667" y="-1024.000" width="170.667" height="170.667" fill="rgb(56,56,56)"/>
<rect x="341.333" y="-1024.000" width="170.667" height="170.667" fill="rgb(86,86,86)"/>
<rect x="512.000" y="-1024.000" width="170.667" height="170.667" fill="rgb(114,114,114)"/>
<rect x="682.667" y="-1024.000" width="170.667" height="170.667" fill="rgb(34,34,34)"/>
<rect x="853.333" y="-1024.000" width="170.667" height="170.667" fill="rgb(114,114,114)"/>
<rect x="0.000" y="-853.333" width="170.667" height="170.667" fill="rgb(216,216,216)"/>
<rect x="170.667" y="-853.333" width="170.667" height="170.667" fill="rgb(121,121,121)"/>
<rect x="682.667" y="-853.333" width="170.667" height="170.667" fill="rgb(190,190,190)"/>
<rect x="853.333" y="-853.333" width="170.667" height="170.667" fill="rgb(42,42,42)"/>
<rect x="170.667" y="-682.667" width="170.667" height="170.667" fill="rgb(205,205,205)"/>
<rect x="341.333" y="-682.667" width="170.667" height="170.667" fill="rgb(126,126,126)"/>
<rect x="512.000" y="-682.667" width="170.667" height="170.667" fill="rgb(81,81,81)"/>
<rect x="682.667" y="-682.667" width="170.667" height="170.667" fill="rgb(36,36,36)"/>
<rect x="853.333" y="-682.667" width="170.667" height="170.667" fill="rgb(34,34,34)"/>
<rect x="0.000" y="-512.000" width="170.667" height="170.667" fill="rgb(186,186,186)"/>
<rect x="170.667" y="-512.000" width="170.667" height="170.667" fill="rgb(24,24,24)"/>
<rect x="341.333" y="-512.000" width="170.667" height="170.667" fill="rgb(153,153,153)"/>
<rect x="512.000" y="-512.000" width="170.667" height="170.667" fill="rgb(205,205,205)"/>
<rect x="682.667" y="-512.000" width="170.667" height="170.667" fill="rgb(188,188,188)"/>
<rect x="853.333" y="-512.000" width="170.667" height="170.667" fill="rgb(34,34,34)"/>
<rect x="0.000" y="-341.333" width="170.667" height="170.667" fill="rgb(128,128,128)"/>
<rect x="170.667" y="-341.333" width="170.667" height="170.667" fill="rgb(87,87,87)"/>
<rect x="682.667" y="-341.333" width="170.667" height="170.667" fill="rgb(108,108,108)"/>
<rect x="853.333" y="-341.333" width="170.667" height="170.667" fill="rgb(31,31,31)"/>
<rect x="0.000" y="-170.667" width="170.667" height="170.667" fill="rgb(218,218,218)"/>
<rect x="170.667" y="-170.667" width="170.667" height="170.667" fill="rgb(31,31,31)"/>
<rect x="341.333" y="-170.667" width="170.667" height="170.667" fill="rgb(63,63,63)"/>
<rect x="512.000" y="-170.667" width="170.667" height="170.667" fill="rgb(56,56,56)"/>
<rect x="682.667" y="-170.667" width="170.667" height="170.667" fill="rgb(128,128,128)"/>
<rect x="853.333" y="-170.667" width="170.667" height="170.667" fill="rgb(9,9,9)"/>
<rect x="1024.000" y="-170.667" width="170.667" height="170.667" fill="rgb(242,242,242)"/>
<rect x="170.667" y="0.000" width="170.667" height="170.667" fill="rgb(252,252,252)"/>
<rect x="341.333" y="0.000" width="170.667" height="170.667" fill="rgb(229,229,229)"/>
<rect x="512.000" y="0.000" width="170.667" height="170.667" fill="rgb(253,253,253)"/>
<path d="M 1057.000 0.000 L 868.000 0.000 Q 842.000 -50.000 831.000 -131.000 Q 650.000 25.000 440.000 25.000 Q 272.000 25.000 175.000 -59.000 Q 78.000 -143.000 78.000 -281.000 Q 78.000 -413.000 171.000 -498.000 Q 265.000 -584.000 496.000 -612.000 L 664.000 -637.000 Q 758.000 -652.000 819.000 -674.000 Q 819.000 -755.000 814.000 -788.000 Q 809.000 -822.000 784.000 -858.000 Q 760.000 -894.000 706.000 -916.000 Q 652.000 -938.000 561.000 -938.000 Q 445.000 -938.000 377.000 -895.000 Q 310.000 -852.000 285.000 -735.000 L 109.000 -758.000 Q 138.000 -921.000 258.000 -1003.000 Q 378.000 -1085.000 588.000 -1085.000 Q 779.000 -1085.000 868.000 -1028.000 Q 958.000 -972.000 978.000 -892.000 Q 999.000 -812.000 999.000 -686.000 L 999.000 -444.000 Q 999.000 -223.000 1007.000 -147.000 Q 1016.000 -72.000 1057.000 0.000 Z M 819.000 -467.000 L 819.000 -532.000 Q 678.000 -485.000 474.000 -457.000 Q 270.000 -430.000 270.000 -285.000 Q 270.000 -212.000 325.000 -164.000 Q 380.000 -117.000 483.000 -117.000 Q 616.000 -117.000 717.000 -196.000 Q 819.000 -276.000 819.000 -467.000 Z" fill="none" stroke="#000" stroke-width="6.144" />
</svg>