<svg xmlns="http://www.w3.org/2000/svg" viewBox="-20.480 -2209.480 1235.627 2784.960" width="1236" height="2785">
<!-- Freetype version: 2.13.2 -->
<rect x="-20.480" y="-2209.480" width="1235.627" height="2784.960" fill="#fff"/>
<rect x="170.667" y="-1194.667" width="170.667" height="170.667" fill="rgb(142,142,142)"/>
<rect x="341.333" y="-1194.667" width="170.667" height="170.667" fill="rgb(31,31,31)"/>
<rect x="512.000" y="-1194.667" width="170.667" height="170.667" fill="rgb(6,6,6)"/>
<rect x="682.667" y="-1194.667" width="170.667" height="170.667" fill="rgb(40,40,40)"/>
<rect x="853.333" y="-1194.667" width="170.667" height="170.667" fill="rgb(191,191,191)"/>
<rect x="0.000" y="-1024.000" width="170.667" height="170.667" fill="rgb(209,209,209)"/>
<rect x="170.667" y="-1024.000" width="170.667" height="170.667" fill="rgb(36,36,36)"/>
<rect x="341.333" y="-1024.000" width="170.667" height="170.667" fill="rgb(219,219,219)"/>
<rect x="512.000" y="-1024.000" width="170.667" height="170.667" fill="rgb(241,241,241)"/>
<rect x="682.667" y="-1024.000" width="170.667" height="170.667" fill="rgb(105,105,105)"/>
<rect x="853.333" y="-1024.000" width="170.667" height="170.667" fill="rgb(60,60,60)"/>
<rect x="682.667" y="-853.333" width="170.667" height="170.667" fill="rgb(199,199,199)"/>
<rect x="853.333" y="-853.333" width="170.667" height="170.667" fill="rgb(38,38,38)"/>
<rect x="170.667" y="-682.667" width="170.667" height="170.667" fill="rgb(192,192,192)"/>
<rect x="341.333" y="-682.667" width="170.667" height="170.667" fill="rgb(113,113,113)"/>
<rect x="512.000" y="-682.667" width="170.667" height="170.667" fill="rgb(70,70,70)"/>
<rect x="682.667" y="-682.667" width="170.667" height="170.667" fill="rgb(18,18,18)"/>
<rect x="853.333" y="-682.667" width="170.667" height="170.667" fill="rgb(34,34,34)"/>
<rect x="0.000" y="-512.000" width="170.667" height="170.667" fill="rgb(176,176,176)"/>
<rect x="170.667" y="-512.000" width="170.667" height="170.667" fill="rgb(26,26,26)"/>
<rect x="341.333" y="-512.000" width="170.667" height="170.667" fill="rgb(147,147,147)"/>
<rect x="512.000" y="-512.000" width="170.667" height="170.667" fill="rgb(190,190,190)"/>
<rect x="682.667" y="-512.000" width="170.667" height="170.667" fill="rgb(174,174,174)"/>
<rect x="853.333" y="-512.000" width="170.667" height="170.667" fill="rgb(34,34,34)"/>
<rect x="0.000" y="-341.333" width="170.667" height="170.667" fill="rgb(131,131,131)"/>
<rect x="170.667" y="-341.333" width="170.667" height="170.667" fill="rgb(66,66,66)"/>
<rect x="341.333" y="-341.333" width="170.667" height="170.667" fill="rgb(243,243,243)"/>
<rect x="512.000" y="-341.333" width="170.667" height="170.667" fill="rgb(226,226,226)"/>
<rect x="682.667" y="-341.333" width="170.667" height="170.667" fill="rgb(76,76,76)"/>
<rect x="853.333" y="-341.333" width="170.667" height="170.667" fill="rgb(30,30,30)"/>
<rect x="0.000" y="-170.667" width="170.667" height="170.667" fill="rgb(232,232,232)"/>
<rect x="170.667" y="-170.667" width="170.667" height="170.667" fill="rgb(62,62,62)"/>
<rect x="341.333" y="-170.667" width="170.667" height="170.667" fill="rgb(8,8,8)"/>
<rect x="512.000" y="-170.667" width="170.667" height="170.667" fill="rgb(47,47,47)"/>
<rect x="682.667" y="-170.667" width="170.667" height="170.667" fill="rgb(163,163,163)"/>
<rect x="853.333" y="-170.667" width="170.667" height="170.667" fill="rgb(8,8,8)"/>
<rect x="1024.000" y="-170.667" width="170.667" height="170.667" fill="rgb(240,240,240)"/>
<line x1="-20.480" y1="-2189.000" x2="1215.147" y2="-2189.000" stroke="#e0a000" stroke-width="8.192"/>
<line x1="-20.480" y1="555.000" x2="1215.147" y2="555.000" stroke="#e0a000" stroke-width="8.192"/>
<text x="20.480" y="-2229.960" font-size="81.920" text-anchor="start" font-family="monospace">ascender</text>
<text x="20.480" y="677.880" font-size="81.920" text-anchor="start" font-family="monospace">descender</text>
<line x1="-20.480" y1="0.000" x2="1215.147" y2="0.000" stroke="#c0c0c0" stroke-width="8.192"/>
<text x="20.480" y="-40.960" font-size="81.920" text-anchor="start" font-family="monospace">baseline</text>
<line x1="0" y1="-2189.000" x2="0" y2="555.000" stroke="#c0c0c0" stroke-width="8.192"/>
<line x1="78.000" y1="-2189.000" x2="78.000" y2="555.000" stroke="#00a0e0" stroke-width="8.192"/>
<line x1="1139.000" y1="-2189.000" x2="1139.000" y2="555.000" stroke="#008000" stroke-width="8.192"/>
<text x="0.000" y="-2270.920" font-size="81.920" text-anchor="middle" font-family="monospace">origin x=0</text>
<text x="78.000" y="-2270.920" font-size="81.920" text-anchor="middle" font-family="monospace">LSB=78.0 em-units</text>
<text x="1139.000" y="-2270.920" font-size="81.920" text-anchor="middle" font-family="monospace">advance=1139.0 em-units</text>
<rect x="78.000" y="-1085.000" width="979.000" height="1110.000" fill="none" stroke="#cc3333" stroke-width="8.192"/>
<text x="118.960" y="-962.120" font-size="81.920" text-anchor="start" font-family="monospace">bbox 979×1110 em-units</text>
<path d="M 1057.000 0.000 L 868.000 0.000 Q 842.000 -50.000 831.000 -131.000 Q 650.000 25.000 440.000 25.000 Q 272.000 25.000 175.000 -59.000 Q 78.000 -143.000 78.000 -281.000 Q 78.000 -413.000 171.000 -498.000 Q 265.000 -584.000 496.000 -612.000 L 664.000 -637.000 Q 758.000 -652.000 819.000 -674.000 Q 819.000 -755.000 814.000 -788.000 Q 809.000 -822.000 784.000 -858.000 Q 760.000 -894.000 706.000 -916.000 Q 652.000 -938.000 561.000 -938.000 Q 445.000 -938.000 377.000 -895.000 Q 310.000 -852.000 285.000 -735.000 L 109.000 -758.000 Q 138.000 -921.000 258.000 -1003.000 Q 378.000 -1085.000 588.000 -1085.000 Q 779.000 -1085.000 868.000 -1028.000 Q 958.000 -972.000 978.000 -892.000 Q 999.000 -812.000 999.000 -686.000 L 999.000 -444.000 Q 999.000 -223.000 1007.000 -147.000 Q 1016.000 -72.000 1057.000 0.000 Z M 819.000 -467.000 L 819.000 -532.000 Q 678.000 -485.000 474.000 -457.000 Q 270.000 -430.000 270.000 -285.000 Q 270.000 -212.000 325.000 -164.000 Q 380.000 -117.000 483.000 -117.000 Q 616.000 -117.000 717.000 -196.000 Q 819.000 -276.000 819.000 -467.000 Z" fill="none" stroke="#000" stroke-width="6.144" />
<path d="M 1056.000 -0.000 L 869.333 -0.000 Q 842.667 -58.667 832.000 -154.667 Q 650.667 -0.000 440.000 -0.000 Q 272.000 -0.000 173.333 -82.667 Q 77.333 -165.333 77.333 -298.667 Q 77.333 -426.667 170.667 -509.333 Q 264.000 -594.667 496.000 -621.333 L 664.000 -645.333 Q 757.333 -661.333 818.667 -682.667 Q 818.667 -786.667 813.333 -829.333 Q 808.000 -874.667 784.000 -920.000 Q 760.000 -968.000 704.000 -994.667 Q 650.667 -1024.000 560.000 -1024.000 Q 445.333 -1024.000 376.000 -986.667 Q 309.333 -952.000 285.333 -853.333 L 109.333 -874.667 Q 138.667 -1034.667 258.667 -1114.667 Q 378.667 -1194.667 589.333 -1194.667 Q 778.667 -1194.667 869.333 -1130.667 Q 960.000 -1069.333 978.667 -981.333 Q 1000.000 -893.333 1000.000 -754.667 L 1000.000 -488.000 Q 1000.000 -245.333 1008.000 -162.667 Q 1016.000 -80.000 1056.000 -0.000 Z M 818.667 -458.667 L 818.667 -512.000 Q 677.333 -474.667 472.000 -450.667 Q 269.333 -429.333 269.333 -309.333 Q 269.333 -248.000 322.667 -208.000 Q 378.667 -170.667 482.667 -170.667 Q 616.000 -170.667 717.333 -234.667 Q 818.667 -301.333 818.667 -458.667 Z" fill="none" stroke="#0054a2" stroke-width="9.216" stroke-dasharray="0.000 14.336" stroke-linecap="round" />
<text x="266.240" y="-1984.200" font-size="81.920" text-anchor="start" font-family="monospace">original outline</text>
<line x1="61.440" y1="-2025.160" x2="163.840" y2="-2025.160" stroke="#000" stroke-width="6.144" />
<text x="266.240" y="-1820.360" font-size="81.920" text-anchor="start" font-family="monospace">hinted outline</text>
<line x1="61.440" y1="-1861.320" x2="163.840" y2="-1861.320" stroke="#0054a2" stroke-width="9.216" stroke-dasharray="0.000 14.336" stroke-linecap="round" />
<text x="266.240" y="-1656.520" font-size="81.920" text-anchor="start" font-family="monospace">bitmap hinted</text>
<rect x="61.440" y="-1738.440" width="102.400" height="102.400" fill="#000" fill-opacity="0.4" stroke="none"/>
</svg>