<svg xmlns="http://www.w3.org/2000/svg" viewBox="-10.000 -942.000 542.000 1141.000" width="542" height="1141">
<!-- Freetype version: 2.13.2 -->
<rect x="-10.000" y="-942.000" width="542.000" height="1141.000" fill="#fff"/>
<rect x="62.500" y="-500.000" width="62.500" height="62.500" fill="rgb(184,184,184)"/>
<rect x="125.000" y="-500.000" width="62.500" height="62.500" fill="rgb(36,36,36)"/>
<rect x="187.500" y="-500.000" width="62.500" height="62.500" fill="rgb(9,9,9)"/>
<rect x="250.000" y="-500.000" width="62.500" height="62.500" fill="rgb(9,9,9)"/>
<rect x="312.500" y="-500.000" width="62.500" height="62.500" fill="rgb(70,70,70)"/>
<rect x="375.000" y="-500.000" width="62.500" height="62.500" fill="rgb(214,214,214)"/>
<rect x="62.500" y="-437.500" width="62.500" height="62.500" fill="rgb(233,233,233)"/>
<rect x="125.000" y="-437.500" width="62.500" height="62.500" fill="rgb(221,221,221)"/>
<rect x="187.500" y="-437.500" width="62.500" height="62.500" fill="rgb(247,247,247)"/>
<rect x="250.000" y="-437.500" width="62.500" height="62.500" fill="rgb(224,224,224)"/>
<rect x="312.500" y="-437.500" width="62.500" height="62.500" fill="rgb(58,58,58)"/>
<rect x="375.000" y="-437.500" width="62.500" height="62.500" fill="rgb(40,40,40)"/>
<rect x="437.500" y="-437.500" width="62.500" height="62.500" fill="rgb(254,254,254)"/>
<rect x="312.500" y="-375.000" width="62.500" height="62.500" fill="rgb(172,172,172)"/>
<rect x="375.000" y="-375.000" width="62.500" height="62.500" fill="rgb(0,0,0)"/>
<rect x="437.500" y="-375.000" width="62.500" height="62.500" fill="rgb(228,228,228)"/>
<rect x="62.500" y="-312.500" width="62.500" height="62.500" fill="rgb(198,198,198)"/>
<rect x="125.000" y="-312.500" width="62.500" height="62.500" fill="rgb(71,71,71)"/>
<rect x="187.500" y="-312.500" width="62.500" height="62.500" fill="rgb(17,17,17)"/>
<rect x="250.000" y="-312.500" width="62.500" height="62.500" fill="rgb(7,7,7)"/>
<rect x="312.500" y="-312.500" width="62.500" height="62.500" fill="rgb(25,25,25)"/>
<rect x="375.000" y="-312.500" width="62.500" height="62.500" fill="rgb(0,0,0)"/>
<rect x="437.500" y="-312.500" width="62.500" height="62.500" fill="rgb(211,211,211)"/>
<rect x="0.000" y="-250.000" width="62.500" height="62.500" fill="rgb(227,227,227)"/>
<rect x="62.500" y="-250.000" width="62.500" height="62.500" fill="rgb(10,10,10)"/>
<rect x="125.000" y="-250.000" width="62.500" height="62.500" fill="rgb(85,85,85)"/>
<rect x="187.500" y="-250.000" width="62.500" height="62.500" fill="rgb(226,226,226)"/>
<rect x="250.000" y="-250.000" width="62.500" height="62.500" fill="rgb(250,250,250)"/>
<rect x="312.500" y="-250.000" width="62.500" height="62.500" fill="rgb(163,163,163)"/>
<rect x="375.000" y="-250.000" width="62.500" height="62.500" fill="rgb(0,0,0)"/>
<rect x="437.500" y="-250.000" width="62.500" height="62.500" fill="rgb(211,211,211)"/>
<rect x="0.000" y="-187.500" width="62.500" height="62.500" fill="rgb(186,186,186)"/>
<rect x="62.500" y="-187.500" width="62.500" height="62.500" fill="rgb(0,0,0)"/>
<rect x="125.000" y="-187.500" width="62.500" height="62.500" fill="rgb(194,194,194)"/>
<rect x="312.500" y="-187.500" width="62.500" height="62.500" fill="rgb(183,183,183)"/>
<rect x="375.000" y="-187.500" width="62.500" height="62.500" fill="rgb(0,0,0)"/>
<rect x="437.500" y="-187.500" width="62.500" height="62.500" fill="rgb(211,211,211)"/>
<rect x="0.000" y="-125.000" width="62.500" height="62.500" fill="rgb(231,231,231)"/>
<rect x="62.500" y="-125.000" width="62.500" height="62.500" fill="rgb(7,7,7)"/>
<rect x="125.000" y="-125.000" width="62.500" height="62.500" fill="rgb(98,98,98)"/>
<rect x="187.500" y="-125.000" width="62.500" height="62.500" fill="rgb(236,236,236)"/>
<rect x="250.000" y="-125.000" width="62.500" height="62.500" fill="rgb(254,254,254)"/>
<rect x="312.500" y="-125.000" width="62.500" height="62.500" fill="rgb(172,172,172)"/>
<rect x="375.000" y="-125.000" width="62.500" height="62.500" fill="rgb(0,0,0)"/>
<rect x="437.500" y="-125.000" width="62.500" height="62.500" fill="rgb(211,211,211)"/>
<rect x="62.500" y="-62.500" width="62.500" height="62.500" fill="rgb(183,183,183)"/>
<rect x="125.000" y="-62.500" width="62.500" height="62.500" fill="rgb(54,54,54)"/>
<rect x="187.500" y="-62.500" width="62.500" height="62.500" fill="rgb(10,10,10)"/>
<rect x="250.000" y="-62.500" width="62.500" height="62.500" fill="rgb(4,4,4)"/>
<rect x="312.500" y="-62.500" width="62.500" height="62.500" fill="rgb(22,22,22)"/>
<rect x="375.000" y="-62.500" width="62.500" height="62.500" fill="rgb(52,52,52)"/>
<rect x="437.500" y="-62.500" width="62.500" height="62.500" fill="rgb(225,225,225)"/>
<line x1="-10.000" y1="-932.000" x2="532.000" y2="-932.000" stroke="#e0a000" stroke-width="4.000"/>
<line x1="-10.000" y1="189.000" x2="532.000" y2="189.000" stroke="#e0a000" stroke-width="4.000"/>
<text x="10.000" y="-952.000" font-size="40.000" text-anchor="start" font-family="monospace">ascender</text>
<text x="10.000" y="249.000" font-size="40.000" text-anchor="start" font-family="monospace">descender</text>
<line x1="-10.000" y1="0.000" x2="532.000" y2="0.000" stroke="#c0c0c0" stroke-width="4.000"/>
<text x="10.000" y="-20.000" font-size="40.000" text-anchor="start" font-family="monospace">baseline</text>
<line x1="0" y1="-932.000" x2="0" y2="189.000" stroke="#c0c0c0" stroke-width="4.000"/>
<line x1="43.000" y1="-932.000" x2="43.000" y2="189.000" stroke="#00a0e0" stroke-width="4.000"/>
<line x1="522.000" y1="-932.000" x2="522.000" y2="189.000" stroke="#008000" stroke-width="4.000"/>
<text x="0.000" y="-972.000" font-size="40.000" text-anchor="middle" font-family="monospace">origin x=0</text>
<text x="43.000" y="-972.000" font-size="40.000" text-anchor="middle" font-family="monospace">LSB=43.0 em-units</text>
<text x="522.000" y="-972.000" font-size="40.000" text-anchor="middle" font-family="monospace">advance=522.0 em-units</text>
<rect x="43.000" y="-533.000" width="405.000" height="544.000" fill="none" stroke="#cc3333" stroke-width="4.000"/>
<text x="63.000" y="-473.000" font-size="40.000" text-anchor="start" font-family="monospace">bbox 405×544 em-units</text>
<path d="M 256.000 -67.000 Q 289.000 -67.000 314.000 -68.000 Q 340.000 -70.000 357.000 -74.000 L 357.000 -229.000 Q 347.000 -234.000 324.000 -237.000 Q 302.000 -241.000 270.000 -241.000 Q 249.000 -241.000 225.000 -238.000 Q 202.000 -235.000 182.000 -225.000 Q 163.000 -216.000 150.000 -199.000 Q 137.000 -183.000 137.000 -156.000 Q 137.000 -106.000 169.000 -86.000 Q 201.000 -67.000 256.000 -67.000 Z M 248.000 -533.000 Q 304.000 -533.000 342.000 -518.000 Q 381.000 -504.000 404.000 -477.000 Q 428.000 -451.000 438.000 -414.000 Q 448.000 -378.000 448.000 -334.000 L 448.000 -9.000 Q 436.000 -7.000 414.000 -3.000 Q 393.000 0.000 366.000 3.000 Q 339.000 6.000 307.000 8.000 Q 276.000 11.000 245.000 11.000 Q 201.000 11.000 164.000 2.000 Q 127.000 -7.000 100.000 -26.000 Q 73.000 -46.000 58.000 -78.000 Q 43.000 -110.000 43.000 -155.000 Q 43.000 -198.000 60.000 -229.000 Q 78.000 -260.000 108.000 -279.000 Q 138.000 -298.000 178.000 -307.000 Q 218.000 -316.000 262.000 -316.000 Q 276.000 -316.000 291.000 -314.000 Q 306.000 -313.000 319.000 -310.000 Q 333.000 -308.000 343.000 -306.000 Q 353.000 -304.000 357.000 -303.000 L 357.000 -329.000 Q 357.000 -352.000 352.000 -374.000 Q 347.000 -397.000 334.000 -414.000 Q 321.000 -432.000 298.000 -442.000 Q 276.000 -453.000 240.000 -453.000 Q 194.000 -453.000 159.000 -446.000 Q 125.000 -440.000 108.000 -433.000 L 97.000 -510.000 Q 115.000 -518.000 157.000 -525.000 Q 199.000 -533.000 248.000 -533.000 Z" fill="none" stroke="#000" stroke-width="3.000" />
<path d="M 255.859 -62.500 Q 289.062 -62.500 314.453 -63.477 Q 340.820 -65.430 357.422 -69.336 L 357.422 -237.305 Q 347.656 -242.188 324.219 -246.094 Q 301.758 -250.000 270.508 -250.000 Q 249.023 -250.000 225.586 -246.094 Q 202.148 -243.164 182.617 -232.422 Q 163.086 -222.656 149.414 -205.078 Q 136.719 -187.500 136.719 -158.203 Q 136.719 -104.492 168.945 -83.008 Q 201.172 -62.500 255.859 -62.500 Z M 248.047 -500.000 Q 303.711 -500.000 341.797 -486.328 Q 380.859 -473.633 404.297 -449.219 Q 427.734 -424.805 437.500 -390.625 Q 448.242 -357.422 448.242 -317.383 L 448.242 -19.531 Q 436.523 -17.578 415.039 -13.672 Q 393.555 -10.742 366.211 -7.812 Q 338.867 -4.883 307.617 -1.953 Q 276.367 -0.000 245.117 -0.000 Q 201.172 -0.000 164.062 -8.789 Q 126.953 -17.578 99.609 -36.133 Q 73.242 -54.688 57.617 -84.961 Q 42.969 -115.234 42.969 -158.203 Q 42.969 -200.195 60.547 -229.492 Q 78.125 -258.789 107.422 -276.367 Q 137.695 -294.922 177.734 -303.711 Q 217.773 -312.500 262.695 -312.500 Q 276.367 -312.500 291.016 -310.547 Q 306.641 -309.570 319.336 -306.641 Q 333.008 -303.711 342.773 -301.758 Q 353.516 -299.805 357.422 -298.828 L 357.422 -323.242 Q 357.422 -343.750 352.539 -364.258 Q 347.656 -385.742 333.984 -401.367 Q 321.289 -417.969 298.828 -427.734 Q 276.367 -437.500 240.234 -437.500 Q 194.336 -437.500 159.180 -430.664 Q 125.000 -423.828 108.398 -416.992 L 96.680 -476.562 Q 114.258 -484.375 156.250 -492.188 Q 199.219 -500.000 248.047 -500.000 Z" fill="none" stroke="#0054a2" stroke-width="4.500" stroke-dasharray="0.000 7.000" stroke-linecap="round" />
<text x="130.000" y="-832.000" font-size="40.000" text-anchor="start" font-family="monospace">original outline</text>
<line x1="30.000" y1="-852.000" x2="80.000" y2="-852.000" stroke="#000" stroke-width="3.000" />
<text x="130.000" y="-752.000" font-size="40.000" text-anchor="start" font-family="monospace">hinted outline</text>
<line x1="30.000" y1="-772.000" x2="80.000" y2="-772.000" stroke="#0054a2" stroke-width="4.500" stroke-dasharray="0.000 7.000" stroke-linecap="round" />
<text x="130.000" y="-672.000" font-size="40.000" text-anchor="start" font-family="monospace">bitmap hinted</text>
<rect x="30.000" y="-712.000" width="50.000" height="50.000" fill="#000" fill-opacity="0.4" stroke="none"/>
</svg>