<svg xmlns="http://www.w3.org/2000/svg" viewBox="0.000 -582.000 522.000 671.000" width="522" height="671">
<!-- Freetype version: 2.13.2 -->
<rect x="0.000" y="-582.000" width="522.000" height="671.000" fill="#fff"/>
<rect x="62.500" y="-562.500" width="62.500" height="62.500" fill="rgb(229,229,229)"/>
<rect x="125.000" y="-562.500" width="62.500" height="62.500" fill="rgb(157,157,157)"/>
<rect x="187.500" y="-562.500" width="62.500" height="62.500" fill="rgb(130,130,130)"/>
<rect x="250.000" y="-562.500" width="62.500" height="62.500" fill="rgb(130,130,130)"/>
<rect x="312.500" y="-562.500" width="62.500" height="62.500" fill="rgb(195,195,195)"/>
<rect x="62.500" y="-500.000" width="62.500" height="62.500" fill="rgb(164,164,164)"/>
<rect x="125.000" y="-500.000" width="62.500" height="62.500" fill="rgb(29,29,29)"/>
<rect x="187.500" y="-500.000" width="62.500" height="62.500" fill="rgb(55,55,55)"/>
<rect x="250.000" y="-500.000" width="62.500" height="62.500" fill="rgb(30,30,30)"/>
<rect x="312.500" y="-500.000" width="62.500" height="62.500" fill="rgb(0,0,0)"/>
<rect x="375.000" y="-500.000" width="62.500" height="62.500" fill="rgb(132,132,132)"/>
<rect x="62.500" y="-437.500" width="62.500" height="62.500" fill="rgb(253,253,253)"/>
<rect x="250.000" y="-437.500" width="62.500" height="62.500" fill="rgb(254,254,254)"/>
<rect x="312.500" y="-437.500" width="62.500" height="62.500" fill="rgb(88,88,88)"/>
<rect x="375.000" y="-437.500" width="62.500" height="62.500" fill="rgb(8,8,8)"/>
<rect x="437.500" y="-437.500" width="62.500" height="62.500" fill="rgb(249,249,249)"/>
<rect x="187.500" y="-375.000" width="62.500" height="62.500" fill="rgb(254,254,254)"/>
<rect x="250.000" y="-375.000" width="62.500" height="62.500" fill="rgb(247,247,247)"/>
<rect x="312.500" y="-375.000" width="62.500" height="62.500" fill="rgb(174,174,174)"/>
<rect x="375.000" y="-375.000" width="62.500" height="62.500" fill="rgb(0,0,0)"/>
<rect x="437.500" y="-375.000" width="62.500" height="62.500" fill="rgb(219,219,219)"/>
<rect x="62.500" y="-312.500" width="62.500" height="62.500" fill="rgb(194,194,194)"/>
<rect x="125.000" y="-312.500" width="62.500" height="62.500" fill="rgb(60,60,60)"/>
<rect x="187.500" y="-312.500" width="62.500" height="62.500" fill="rgb(6,6,6)"/>
<rect x="250.000" y="-312.500" width="62.500" height="62.500" fill="rgb(0,0,0)"/>
<rect x="312.500" y="-312.500" width="62.500" height="62.500" fill="rgb(15,15,15)"/>
<rect x="375.000" y="-312.500" width="62.500" height="62.500" fill="rgb(0,0,0)"/>
<rect x="437.500" y="-312.500" width="62.500" height="62.500" fill="rgb(211,211,211)"/>
<rect x="0.000" y="-250.000" width="62.500" height="62.500" fill="rgb(229,229,229)"/>
<rect x="62.500" y="-250.000" width="62.500" height="62.500" fill="rgb(10,10,10)"/>
<rect x="125.000" y="-250.000" width="62.500" height="62.500" fill="rgb(66,66,66)"/>
<rect x="187.500" y="-250.000" width="62.500" height="62.500" fill="rgb(194,194,194)"/>
<rect x="250.000" y="-250.000" width="62.500" height="62.500" fill="rgb(214,214,214)"/>
<rect x="312.500" y="-250.000" width="62.500" height="62.500" fill="rgb(137,137,137)"/>
<rect x="375.000" y="-250.000" width="62.500" height="62.500" fill="rgb(0,0,0)"/>
<rect x="437.500" y="-250.000" width="62.500" height="62.500" fill="rgb(211,211,211)"/>
<rect x="0.000" y="-187.500" width="62.500" height="62.500" fill="rgb(185,185,185)"/>
<rect x="62.500" y="-187.500" width="62.500" height="62.500" fill="rgb(0,0,0)"/>
<rect x="125.000" y="-187.500" width="62.500" height="62.500" fill="rgb(192,192,192)"/>
<rect x="312.500" y="-187.500" width="62.500" height="62.500" fill="rgb(183,183,183)"/>
<rect x="375.000" y="-187.500" width="62.500" height="62.500" fill="rgb(0,0,0)"/>
<rect x="437.500" y="-187.500" width="62.500" height="62.500" fill="rgb(211,211,211)"/>
<rect x="0.000" y="-125.000" width="62.500" height="62.500" fill="rgb(226,226,226)"/>
<rect x="62.500" y="-125.000" width="62.500" height="62.500" fill="rgb(1,1,1)"/>
<rect x="125.000" y="-125.000" width="62.500" height="62.500" fill="rgb(89,89,89)"/>
<rect x="187.500" y="-125.000" width="62.500" height="62.500" fill="rgb(217,217,217)"/>
<rect x="250.000" y="-125.000" width="62.500" height="62.500" fill="rgb(234,234,234)"/>
<rect x="312.500" y="-125.000" width="62.500" height="62.500" fill="rgb(158,158,158)"/>
<rect x="375.000" y="-125.000" width="62.500" height="62.500" fill="rgb(0,0,0)"/>
<rect x="437.500" y="-125.000" width="62.500" height="62.500" fill="rgb(211,211,211)"/>
<rect x="62.500" y="-62.500" width="62.500" height="62.500" fill="rgb(151,151,151)"/>
<rect x="125.000" y="-62.500" width="62.500" height="62.500" fill="rgb(16,16,16)"/>
<rect x="187.500" y="-62.500" width="62.500" height="62.500" fill="rgb(0,0,0)"/>
<rect x="250.000" y="-62.500" width="62.500" height="62.500" fill="rgb(0,0,0)"/>
<rect x="312.500" y="-62.500" width="62.500" height="62.500" fill="rgb(0,0,0)"/>
<rect x="375.000" y="-62.500" width="62.500" height="62.500" fill="rgb(8,8,8)"/>
<rect x="437.500" y="-62.500" width="62.500" height="62.500" fill="rgb(217,217,217)"/>
<rect x="125.000" y="0.000" width="62.500" height="62.500" fill="rgb(250,250,250)"/>
<rect x="187.500" y="0.000" width="62.500" height="62.500" fill="rgb(223,223,223)"/>
<rect x="250.000" y="0.000" width="62.500" height="62.500" fill="rgb(216,216,216)"/>
<rect x="312.500" y="0.000" width="62.500" height="62.500" fill="rgb(235,235,235)"/>
<path d="M 256.000 -67.000 Q 289.000 -67.000 314.000 -68.000 Q 340.000 -70.000 357.000 -74.000 L 357.000 -229.000 Q 347.000 -234.000 324.000 -237.000 Q 302.000 -241.000 270.000 -241.000 Q 249.000 -241.000 225.000 -238.000 Q 202.000 -235.000 182.000 -225.000 Q 163.000 -216.000 150.000 -199.000 Q 137.000 -183.000 137.000 -156.000 Q 137.000 -106.000 169.000 -86.000 Q 201.000 -67.000 256.000 -67.000 Z M 248.000 -533.000 Q 304.000 -533.000 342.000 -518.000 Q 381.000 -504.000 404.000 -477.000 Q 428.000 -451.000 438.000 -414.000 Q 448.000 -378.000 448.000 -334.000 L 448.000 -9.000 Q 436.000 -7.000 414.000 -3.000 Q 393.000 0.000 366.000 3.000 Q 339.000 6.000 307.000 8.000 Q 276.000 11.000 245.000 11.000 Q 201.000 11.000 164.000 2.000 Q 127.000 -7.000 100.000 -26.000 Q 73.000 -46.000 58.000 -78.000 Q 43.000 -110.000 43.000 -155.000 Q 43.000 -198.000 60.000 -229.000 Q 78.000 -260.000 108.000 -279.000 Q 138.000 -298.000 178.000 -307.000 Q 218.000 -316.000 262.000 -316.000 Q 276.000 -316.000 291.000 -314.000 Q 306.000 -313.000 319.000 -310.000 Q 333.000 -308.000 343.000 -306.000 Q 353.000 -304.000 357.000 -303.000 L 357.000 -329.000 Q 357.000 -352.000 352.000 -374.000 Q 347.000 -397.000 334.000 -414.000 Q 321.000 -432.000 298.000 -442.000 Q 276.000 -453.000 240.000 -453.000 Q 194.000 -453.000 159.000 -446.000 Q 125.000 -440.000 108.000 -433.000 L 97.000 -510.000 Q 115.000 -518.000 157.000 -525.000 Q 199.000 -533.000 248.000 -533.000 Z" fill="none" stroke="#000" stroke-width="3.000" />
</svg>