<svg xmlns="http://www.w3.org/2000/svg" viewBox="0.000 -582.000 522.000 671.000" width="522" height="671">
<!-- Freetype version: 2.13.2 -->
<rect x="0.000" y="-582.000" width="522.000" height="671.000" fill="#fff"/>
<rect x="125.000" y="-500.000" width="62.500" height="62.500" fill="rgb(0,0,0)" fill-opacity="0.250"/>
<rect x="187.500" y="-500.000" width="62.500" height="62.500" fill="rgb(0,0,0)" fill-opacity="0.250"/>
<rect x="250.000" y="-500.000" width="62.500" height="62.500" fill="rgb(0,0,0)" fill-opacity="0.250"/>
<rect x="312.500" y="-500.000" width="62.500" height="62.500" fill="rgb(0,0,0)" fill-opacity="0.250"/>
<rect x="375.000" y="-437.500" width="62.500" height="62.500" fill="rgb(0,0,0)" fill-opacity="0.250"/>
<rect x="375.000" y="-375.000" width="62.500" height="62.500" fill="rgb(0,0,0)" fill-opacity="0.250"/>
<rect x="125.000" y="-312.500" width="62.500" height="62.500" fill="rgb(0,0,0)" fill-opacity="0.250"/>
<rect x="187.500" y="-312.500" width="62.500" height="62.500" fill="rgb(0,0,0)" fill-opacity="0.250"/>
<rect x="250.000" y="-312.500" width="62.500" height="62.500" fill="rgb(0,0,0)" fill-opacity="0.250"/>
<rect x="312.500" y="-312.500" width="62.500" height="62.500" fill="rgb(0,0,0)" fill-opacity="0.250"/>
<rect x="375.000" y="-312.500" width="62.500" height="62.500" fill="rgb(0,0,0)" fill-opacity="0.250"/>
<rect x="62.500" y="-250.000" width="62.500" height="62.500" fill="rgb(0,0,0)" fill-opacity="0.250"/>
<rect x="375.000" y="-250.000" width="62.500" height="62.500" fill="rgb(0,0,0)" fill-opacity="0.250"/>
<rect x="62.500" y="-187.500" width="62.500" height="62.500" fill="rgb(0,0,0)" fill-opacity="0.250"/>
<rect x="375.000" y="-187.500" width="62.500" height="62.500" fill="rgb(0,0,0)" fill-opacity="0.250"/>
<rect x="62.500" y="-125.000" width="62.500" height="62.500" fill="rgb(0,0,0)" fill-opacity="0.250"/>
<rect x="375.000" y="-125.000" width="62.500" height="62.500" fill="rgb(0,0,0)" fill-opacity="0.250"/>
<rect x="125.000" y="-62.500" width="62.500" height="62.500" fill="rgb(0,0,0)" fill-opacity="0.250"/>
<rect x="187.500" y="-62.500" width="62.500" height="62.500" fill="rgb(0,0,0)" fill-opacity="0.250"/>
<rect x="250.000" y="-62.500" width="62.500" height="62.500" fill="rgb(0,0,0)" fill-opacity="0.250"/>
<rect x="312.500" y="-62.500" width="62.500" height="62.500" fill="rgb(0,0,0)" fill-opacity="0.250"/>
<rect x="375.000" y="-62.500" width="62.500" height="62.500" fill="rgb(0,0,0)" fill-opacity="0.250"/>
<path d="M 259.766 -62.500 Q 297.852 -62.500 326.172 -63.477 Q 355.469 -65.430 375.000 -69.336 L 375.000 -237.305 Q 363.281 -242.188 337.891 -246.094 Q 312.500 -250.000 276.367 -250.000 Q 251.953 -250.000 225.586 -246.094 Q 199.219 -243.164 176.758 -232.422 Q 154.297 -222.656 139.648 -205.078 Q 125.000 -187.500 125.000 -158.203 Q 125.000 -104.492 161.133 -83.008 Q 197.266 -62.500 259.766 -62.500 Z M 259.766 -500.000 Q 309.570 -500.000 343.750 -486.328 Q 377.930 -473.633 398.438 -449.219 Q 419.922 -424.805 428.711 -390.625 Q 437.500 -357.422 437.500 -317.383 L 437.500 -19.531 Q 426.758 -17.578 406.250 -13.672 Q 386.719 -10.742 361.328 -7.812 Q 336.914 -4.883 307.617 -1.953 Q 278.320 -0.000 250.000 -0.000 Q 208.984 -0.000 174.805 -8.789 Q 140.625 -17.578 115.234 -36.133 Q 89.844 -54.688 76.172 -84.961 Q 62.500 -115.234 62.500 -158.203 Q 62.500 -200.195 80.078 -229.492 Q 97.656 -258.789 126.953 -276.367 Q 157.227 -294.922 196.289 -303.711 Q 236.328 -312.500 280.273 -312.500 Q 293.945 -312.500 308.594 -310.547 Q 324.219 -309.570 337.891 -306.641 Q 351.562 -303.711 361.328 -301.758 Q 371.094 -299.805 375.000 -298.828 L 375.000 -323.242 Q 375.000 -343.750 370.117 -364.258 Q 365.234 -385.742 352.539 -401.367 Q 340.820 -417.969 319.336 -427.734 Q 297.852 -437.500 262.695 -437.500 Q 218.750 -437.500 185.547 -430.664 Q 153.320 -423.828 136.719 -416.992 L 125.000 -476.562 Q 140.625 -484.375 177.734 -492.188 Q 215.820 -500.000 259.766 -500.000 Z" fill="none" stroke="#0054a2" stroke-width="4.500" stroke-dasharray="0.000 7.000" stroke-linecap="round" />
</svg>