<svg xmlns="http://www.w3.org/2000/svg" viewBox="0.000 -1267.400 1139.000 1515.200" width="1139" height="1515">
<!-- Freetype version: 2.13.2 -->
<rect x="0.000" y="-1267.400" width="1139.000" height="1515.200" fill="#fff"/>
<path d="M 1057.000 0.000 L 868.000 0.000 Q 842.000 -50.000 831.000 -131.000 Q 650.000 25.000 440.000 25.000 Q 272.000 25.000 175.000 -59.000 Q 78.000 -143.000 78.000 -281.000 Q 78.000 -413.000 171.000 -498.000 Q 265.000 -584.000 496.000 -612.000 L 664.000 -637.000 Q 758.000 -652.000 819.000 -674.000 Q 819.000 -755.000 814.000 -788.000 Q 809.000 -822.000 784.000 -858.000 Q 760.000 -894.000 706.000 -916.000 Q 652.000 -938.000 561.000 -938.000 Q 445.000 -938.000 377.000 -895.000 Q 310.000 -852.000 285.000 -735.000 L 109.000 -758.000 Q 138.000 -921.000 258.000 -1003.000 Q 378.000 -1085.000 588.000 -1085.000 Q 779.000 -1085.000 868.000 -1028.000 Q 958.000 -972.000 978.000 -892.000 Q 999.000 -812.000 999.000 -686.000 L 999.000 -444.000 Q 999.000 -223.000 1007.000 -147.000 Q 1016.000 -72.000 1057.000 0.000 Z M 819.000 -467.000 L 819.000 -532.000 Q 678.000 -485.000 474.000 -457.000 Q 270.000 -430.000 270.000 -285.000 Q 270.000 -212.000 325.000 -164.000 Q 380.000 -117.000 483.000 -117.000 Q 616.000 -117.000 717.000 -196.000 Q 819.000 -276.000 819.000 -467.000 Z" fill="none" stroke="#000" stroke-width="6.144" />
<path d="M 1056.000 -0.000 L 869.333 -0.000 Q 842.667 -58.667 832.000 -154.667 Q 650.667 -0.000 440.000 -0.000 Q 272.000 -0.000 173.333 -82.667 Q 77.333 -165.333 77.333 -298.667 Q 77.333 -426.667 170.667 -509.333 Q 264.000 -594.667 496.000 -621.333 L 664.000 -645.333 Q 757.333 -661.333 818.667 -682.667 Q 818.667 -786.667 813.333 -829.333 Q 808.000 -874.667 784.000 -920.000 Q 760.000 -968.000 704.000 -994.667 Q 650.667 -1024.000 560.000 -1024.000 Q 445.333 -1024.000 376.000 -986.667 Q 309.333 -952.000 285.333 -853.333 L 109.333 -874.667 Q 138.667 -1034.667 258.667 -1114.667 Q 378.667 -1194.667 589.333 -1194.667 Q 778.667 -1194.667 869.333 -1130.667 Q 960.000 -1069.333 978.667 -981.333 Q 1000.000 -893.333 1000.000 -754.667 L 1000.000 -488.000 Q 1000.000 -245.333 1008.000 -162.667 Q 1016.000 -80.000 1056.000 -0.000 Z M 818.667 -458.667 L 818.667 -512.000 Q 677.333 -474.667 472.000 -450.667 Q 269.333 -429.333 269.333 -309.333 Q 269.333 -248.000 322.667 -208.000 Q 378.667 -170.667 482.667 -170.667 Q 616.000 -170.667 717.333 -234.667 Q 818.667 -301.333 818.667 -458.667 Z" fill="none" stroke="#0054a2" stroke-width="9.216" stroke-dasharray="0.000 14.336" stroke-linecap="round" />
</svg>