<svg xmlns="http://www.w3.org/2000/svg" viewBox="0.000 -582.000 522.000 671.000" width="522" height="671">
<!-- Freetype version: 2.13.2 -->
<rect x="0.000" y="-582.000" width="522.000" height="671.000" fill="#fff"/>
<path d="M 256.000 -67.000 Q 289.000 -67.000 314.000 -68.000 Q 340.000 -70.000 357.000 -74.000 L 357.000 -229.000 Q 347.000 -234.000 324.000 -237.000 Q 302.000 -241.000 270.000 -241.000 Q 249.000 -241.000 225.000 -238.000 Q 202.000 -235.000 182.000 -225.000 Q 163.000 -216.000 150.000 -199.000 Q 137.000 -183.000 137.000 -156.000 Q 137.000 -106.000 169.000 -86.000 Q 201.000 -67.000 256.000 -67.000 Z M 248.000 -533.000 Q 304.000 -533.000 342.000 -518.000 Q 381.000 -504.000 404.000 -477.000 Q 428.000 -451.000 438.000 -414.000 Q 448.000 -378.000 448.000 -334.000 L 448.000 -9.000 Q 436.000 -7.000 414.000 -3.000 Q 393.000 0.000 366.000 3.000 Q 339.000 6.000 307.000 8.000 Q 276.000 11.000 245.000 11.000 Q 201.000 11.000 164.000 2.000 Q 127.000 -7.000 100.000 -26.000 Q 73.000 -46.000 58.000 -78.000 Q 43.000 -110.000 43.000 -155.000 Q 43.000 -198.000 60.000 -229.000 Q 78.000 -260.000 108.000 -279.000 Q 138.000 -298.000 178.000 -307.000 Q 218.000 -316.000 262.000 -316.000 Q 276.000 -316.000 291.000 -314.000 Q 306.000 -313.000 319.000 -310.000 Q 333.000 -308.000 343.000 -306.000 Q 353.000 -304.000 357.000 -303.000 L 357.000 -329.000 Q 357.000 -352.000 352.000 -374.000 Q 347.000 -397.000 334.000 -414.000 Q 321.000 -432.000 298.000 -442.000 Q 276.000 -453.000 240.000 -453.000 Q 194.000 -453.000 159.000 -446.000 Q 125.000 -440.000 108.000 -433.000 L 97.000 -510.000 Q 115.000 -518.000 157.000 -525.000 Q 199.000 -533.000 248.000 -533.000 Z" fill="none" stroke="#000" stroke-width="3.000" />
<path d="M 259.766 -62.500 Q 297.852 -62.500 326.172 -63.477 Q 355.469 -65.430 375.000 -69.336 L 375.000 -237.305 Q 363.281 -242.188 337.891 -246.094 Q 312.500 -250.000 276.367 -250.000 Q 251.953 -250.000 225.586 -246.094 Q 199.219 -243.164 176.758 -232.422 Q 154.297 -222.656 139.648 -205.078 Q 125.000 -187.500 125.000 -158.203 Q 125.000 -104.492 161.133 -83.008 Q 197.266 -62.500 259.766 -62.500 Z M 259.766 -500.000 Q 309.570 -500.000 343.750 -486.328 Q 377.930 -473.633 398.438 -449.219 Q 419.922 -424.805 428.711 -390.625 Q 437.500 -357.422 437.500 -317.383 L 437.500 -19.531 Q 426.758 -17.578 406.250 -13.672 Q 386.719 -10.742 361.328 -7.812 Q 336.914 -4.883 307.617 -1.953 Q 278.320 -0.000 250.000 -0.000 Q 208.984 -0.000 174.805 -8.789 Q 140.625 -17.578 115.234 -36.133 Q 89.844 -54.688 76.172 -84.961 Q 62.500 -115.234 62.500 -158.203 Q 62.500 -200.195 80.078 -229.492 Q 97.656 -258.789 126.953 -276.367 Q 157.227 -294.922 196.289 -303.711 Q 236.328 -312.500 280.273 -312.500 Q 293.945 -312.500 308.594 -310.547 Q 324.219 -309.570 337.891 -306.641 Q 351.562 -303.711 361.328 -301.758 Q 371.094 -299.805 375.000 -298.828 L 375.000 -323.242 Q 375.000 -343.750 370.117 -364.258 Q 365.234 -385.742 352.539 -401.367 Q 340.820 -417.969 319.336 -427.734 Q 297.852 -437.500 262.695 -437.500 Q 218.750 -437.500 185.547 -430.664 Q 153.320 -423.828 136.719 -416.992 L 125.000 -476.562 Q 140.625 -484.375 177.734 -492.188 Q 215.820 -500.000 259.766 -500.000 Z" fill="none" stroke="#0054a2" stroke-width="4.500" stroke-dasharray="0.000 7.000" stroke-linecap="round" />
</svg>