<svg xmlns="http://www.w3.org/2000/svg" viewBox="0.000 -1267.400 1139.000 1515.200" width="1139" height="1515">
<!-- Freetype version: 2.13.2 -->
<rect x="0.000" y="-1267.400" width="1139.000" height="1515.200" fill="#fff"/>
<rect x="341.333" y="-1194.667" width="170.667" height="170.667" fill="rgb(0,0,0)" fill-opacity="0.250"/>
<rect x="512.000" y="-1194.667" width="170.667" height="170.667" fill="rgb(0,0,0)" fill-opacity="0.250"/>
<rect x="682.667" y="-1194.667" width="170.667" height="170.667" fill="rgb(0,0,0)" fill-opacity="0.250"/>
<rect x="170.667" y="-1024.000" width="170.667" height="170.667" fill="rgb(0,0,0)" fill-opacity="0.250"/>
<rect x="853.333" y="-1024.000" width="170.667" height="170.667" fill="rgb(0,0,0)" fill-opacity="0.250"/>
<rect x="853.333" y="-853.333" width="170.667" height="170.667" fill="rgb(0,0,0)" fill-opacity="0.250"/>
<rect x="341.333" y="-682.667" width="170.667" height="170.667" fill="rgb(0,0,0)" fill-opacity="0.250"/>
<rect x="512.000" y="-682.667" width="170.667" height="170.667" fill="rgb(0,0,0)" fill-opacity="0.250"/>
<rect x="682.667" y="-682.667" width="170.667" height="170.667" fill="rgb(0,0,0)" fill-opacity="0.250"/>
<rect x="853.333" y="-682.667" width="170.667" height="170.667" fill="rgb(0,0,0)" fill-opacity="0.250"/>
<rect x="170.667" y="-512.000" width="170.667" height="170.667" fill="rgb(0,0,0)" fill-opacity="0.250"/>
<rect x="853.333" y="-512.000" width="170.667" height="170.667" fill="rgb(0,0,0)" fill-opacity="0.250"/>
<rect x="170.667" y="-341.333" width="170.667" height="170.667" fill="rgb(0,0,0)" fill-opacity="0.250"/>
<rect x="682.667" y="-341.333" width="170.667" height="170.667" fill="rgb(0,0,0)" fill-opacity="0.250"/>
<rect x="853.333" y="-341.333" width="170.667" height="170.667" fill="rgb(0,0,0)" fill-opacity="0.250"/>
<rect x="341.333" y="-170.667" width="170.667" height="170.667" fill="rgb(0,0,0)" fill-opacity="0.250"/>
<rect x="512.000" y="-170.667" width="170.667" height="170.667" fill="rgb(0,0,0)" fill-opacity="0.250"/>
<rect x="853.333" y="-170.667" width="170.667" height="170.667" fill="rgb(0,0,0)" fill-opacity="0.250"/>
<path d="M 1024.000 -0.000 L 853.333 -0.000 Q 853.333 -58.667 853.333 -218.667 Q 688.000 -0.000 498.667 -0.000 Q 346.667 -42.667 258.667 -104.000 Q 170.667 -165.333 170.667 -298.667 Q 170.667 -426.667 256.000 -530.667 Q 344.000 -637.333 554.667 -621.333 L 709.333 -645.333 Q 797.333 -661.333 853.333 -682.667 Q 853.333 -786.667 848.000 -829.333 Q 842.667 -874.667 818.667 -920.000 Q 797.333 -968.000 744.000 -994.667 Q 693.333 -1024.000 605.333 -1024.000 Q 496.000 -1024.000 429.333 -986.667 Q 365.333 -952.000 341.333 -853.333 L 170.667 -874.667 Q 197.333 -1034.667 312.000 -1114.667 Q 429.333 -1194.667 629.333 -1194.667 Q 813.333 -1194.667 877.333 -1130.667 Q 941.333 -1069.333 981.333 -981.333 Q 1024.000 -893.333 1024.000 -754.667 L 1024.000 -488.000 Q 1024.000 -245.333 1024.000 -162.667 Q 1024.000 -80.000 1024.000 -0.000 Z M 853.333 -458.667 L 853.333 -512.000 Q 722.667 -474.667 530.667 -472.000 Q 341.333 -472.000 341.333 -309.333 Q 341.333 -248.000 392.000 -208.000 Q 442.667 -170.667 538.667 -170.667 Q 664.000 -170.667 736.000 -234.667 Q 810.667 -301.333 853.333 -458.667 Z" fill="none" stroke="#0054a2" stroke-width="9.216" stroke-dasharray="0.000 14.336" stroke-linecap="round" />
</svg>