<svg xmlns="http://www.w3.org/2000/svg" viewBox="0.000 -582.000 522.000 671.000" width="522" height="671">
<!-- Freetype version: 2.13.2 -->
<rect x="0.000" y="-582.000" width="522.000" height="671.000" fill="#fff"/>
<rect x="62.500" y="-500.000" width="62.500" height="62.500" fill="rgb(184,184,184)"/>
<rect x="125.000" y="-500.000" width="62.500" height="62.500" fill="rgb(36,36,36)"/>
<rect x="187.500" y="-500.000" width="62.500" height="62.500" fill="rgb(9,9,9)"/>
<rect x="250.000" y="-500.000" width="62.500" height="62.500" fill="rgb(9,9,9)"/>
<rect x="312.500" y="-500.000" width="62.500" height="62.500" fill="rgb(70,70,70)"/>
<rect x="375.000" y="-500.000" width="62.500" height="62.500" fill="rgb(214,214,214)"/>
<rect x="62.500" y="-437.500" width="62.500" height="62.500" fill="rgb(233,233,233)"/>
<rect x="125.000" y="-437.500" width="62.500" height="62.500" fill="rgb(221,221,221)"/>
<rect x="187.500" y="-437.500" width="62.500" height="62.500" fill="rgb(247,247,247)"/>
<rect x="250.000" y="-437.500" width="62.500" height="62.500" fill="rgb(224,224,224)"/>
<rect x="312.500" y="-437.500" width="62.500" height="62.500" fill="rgb(58,58,58)"/>
<rect x="375.000" y="-437.500" width="62.500" height="62.500" fill="rgb(40,40,40)"/>
<rect x="437.500" y="-437.500" width="62.500" height="62.500" fill="rgb(254,254,254)"/>
<rect x="312.500" y="-375.000" width="62.500" height="62.500" fill="rgb(172,172,172)"/>
<rect x="375.000" y="-375.000" width="62.500" height="62.500" fill="rgb(0,0,0)"/>
<rect x="437.500" y="-375.000" width="62.500" height="62.500" fill="rgb(228,228,228)"/>
<rect x="62.500" y="-312.500" width="62.500" height="62.500" fill="rgb(198,198,198)"/>
<rect x="125.000" y="-312.500" width="62.500" height="62.500" fill="rgb(71,71,71)"/>
<rect x="187.500" y="-312.500" width="62.500" height="62.500" fill="rgb(17,17,17)"/>
<rect x="250.000" y="-312.500" width="62.500" height="62.500" fill="rgb(7,7,7)"/>
<rect x="312.500" y="-312.500" width="62.500" height="62.500" fill="rgb(25,25,25)"/>
<rect x="375.000" y="-312.500" width="62.500" height="62.500" fill="rgb(0,0,0)"/>
<rect x="437.500" y="-312.500" width="62.500" height="62.500" fill="rgb(211,211,211)"/>
<rect x="0.000" y="-250.000" width="62.500" height="62.500" fill="rgb(227,227,227)"/>
<rect x="62.500" y="-250.000" width="62.500" height="62.500" fill="rgb(10,10,10)"/>
<rect x="125.000" y="-250.000" width="62.500" height="62.500" fill="rgb(85,85,85)"/>
<rect x="187.500" y="-250.000" width="62.500" height="62.500" fill="rgb(226,226,226)"/>
<rect x="250.000" y="-250.000" width="62.500" height="62.500" fill="rgb(250,250,250)"/>
<rect x="312.500" y="-250.000" width="62.500" height="62.500" fill="rgb(163,163,163)"/>
<rect x="375.000" y="-250.000" width="62.500" height="62.500" fill="rgb(0,0,0)"/>
<rect x="437.500" y="-250.000" width="62.500" height="62.500" fill="rgb(211,211,211)"/>
<rect x="0.000" y="-187.500" width="62.500" height="62.500" fill="rgb(186,186,186)"/>
<rect x="62.500" y="-187.500" width="62.500" height="62.500" fill="rgb(0,0,0)"/>
<rect x="125.000" y="-187.500" width="62.500" height="62.500" fill="rgb(194,194,194)"/>
<rect x="312.500" y="-187.500" width="62.500" height="62.500" fill="rgb(183,183,183)"/>
<rect x="375.000" y="-187.500" width="62.500" height="62.500" fill="rgb(0,0,0)"/>
<rect x="437.500" y="-187.500" width="62.500" height="62.500" fill="rgb(211,211,211)"/>
<rect x="0.000" y="-125.000" width="62.500" height="62.500" fill="rgb(231,231,231)"/>
<rect x="62.500" y="-125.000" width="62.500" height="62.500" fill="rgb(7,7,7)"/>
<rect x="125.000" y="-125.000" width="62.500" height="62.500" fill="rgb(98,98,98)"/>
<rect x="187.500" y="-125.000" width="62.500" height="62.500" fill="rgb(236,236,236)"/>
<rect x="250.000" y="-125.000" width="62.500" height="62.500" fill="rgb(254,254,254)"/>
<rect x="312.500" y="-125.000" width="62.500" height="62.500" fill="rgb(172,172,172)"/>
<rect x="375.000" y="-125.000" width="62.500" height="62.500" fill="rgb(0,0,0)"/>
<rect x="437.500" y="-125.000" width="62.500" height="62.500" fill="rgb(211,211,211)"/>
<rect x="62.500" y="-62.500" width="62.500" height="62.500" fill="rgb(183,183,183)"/>
<rect x="125.000" y="-62.500" width="62.500" height="62.500" fill="rgb(54,54,54)"/>
<rect x="187.500" y="-62.500" width="62.500" height="62.500" fill="rgb(10,10,10)"/>
<rect x="250.000" y="-62.500" width="62.500" height="62.500" fill="rgb(4,4,4)"/>
<rect x="312.500" y="-62.500" width="62.500" height="62.500" fill="rgb(22,22,22)"/>
<rect x="375.000" y="-62.500" width="62.500" height="62.500" fill="rgb(52,52,52)"/>
<rect x="437.500" y="-62.500" width="62.500" height="62.500" fill="rgb(225,225,225)"/>
<path d="M 255.859 -62.500 Q 289.062 -62.500 314.453 -63.477 Q 340.820 -65.430 357.422 -69.336 L 357.422 -237.305 Q 347.656 -242.188 324.219 -246.094 Q 301.758 -250.000 270.508 -250.000 Q 249.023 -250.000 225.586 -246.094 Q 202.148 -243.164 182.617 -232.422 Q 163.086 -222.656 149.414 -205.078 Q 136.719 -187.500 136.719 -158.203 Q 136.719 -104.492 168.945 -83.008 Q 201.172 -62.500 255.859 -62.500 Z M 248.047 -500.000 Q 303.711 -500.000 341.797 -486.328 Q 380.859 -473.633 404.297 -449.219 Q 427.734 -424.805 437.500 -390.625 Q 448.242 -357.422 448.242 -317.383 L 448.242 -19.531 Q 436.523 -17.578 415.039 -13.672 Q 393.555 -10.742 366.211 -7.812 Q 338.867 -4.883 307.617 -1.953 Q 276.367 -0.000 245.117 -0.000 Q 201.172 -0.000 164.062 -8.789 Q 126.953 -17.578 99.609 -36.133 Q 73.242 -54.688 57.617 -84.961 Q 42.969 -115.234 42.969 -158.203 Q 42.969 -200.195 60.547 -229.492 Q 78.125 -258.789 107.422 -276.367 Q 137.695 -294.922 177.734 -303.711 Q 217.773 -312.500 262.695 -312.500 Q 276.367 -312.500 291.016 -310.547 Q 306.641 -309.570 319.336 -306.641 Q 333.008 -303.711 342.773 -301.758 Q 353.516 -299.805 357.422 -298.828 L 357.422 -323.242 Q 357.422 -343.750 352.539 -364.258 Q 347.656 -385.742 333.984 -401.367 Q 321.289 -417.969 298.828 -427.734 Q 276.367 -437.500 240.234 -437.500 Q 194.336 -437.500 159.180 -430.664 Q 125.000 -423.828 108.398 -416.992 L 96.680 -476.562 Q 114.258 -484.375 156.250 -492.188 Q 199.219 -500.000 248.047 -500.000 Z" fill="none" stroke="#0054a2" stroke-width="4.500" stroke-dasharray="0.000 7.000" stroke-linecap="round" />
</svg>